# Blender v2.93.1 OBJ File: ''
# www.blender.org
mtllib rivermesh.mtl
o Plane.001
v 0.000000 1.599999 -5.250258
v -0.000000 1.600000 -0.783506
v -0.000000 1.600000 0.698345
v 0.000000 1.472135 -6.400000
v -0.000000 1.516397 6.400000
v -0.000000 1.319865 3.743725
v -0.000000 1.301641 2.057561
v 0.000000 1.449198 -2.488913
v 0.000000 1.374412 -3.372604
v 0.000000 1.549635 -4.360683
v 0.000000 -1.600001 -5.885173
v -0.000000 -1.414844 6.400000
v 0.000000 -1.551152 -6.400000
v -0.000000 -1.299333 5.892390
v 0.000000 -1.448620 -4.084924
v 0.000000 -1.239946 -3.248077
v 0.000000 -1.208234 -2.554214
v 0.000000 -1.295171 -1.528192
v 0.000000 -1.410907 0.445795
v -0.000000 -1.378882 1.527099
v -0.000000 -1.272691 4.003226
vt 0.555106 1.003402
vt 0.438063 1.003402
vt 0.379245 -0.005238
vt 0.535159 -0.005238
vt 0.303363 1.003402
vt 0.298205 -0.005238
vt 0.233565 1.003402
vt 0.243401 -0.005238
vt 0.155522 1.003402
vt 0.177303 -0.005238
vt 0.085260 1.003402
vt 0.035112 -0.005238
vt -0.005552 1.003402
vt -0.005552 -0.005238
vt 0.620565 -0.005238
vt 0.662463 1.003402
vt 0.816140 -0.005238
vt 0.795643 1.003402
vt 0.965354 -0.005238
vt 1.005447 -0.005238
vt 1.005447 1.003402
vn -1.0000 -0.0000 -0.0000
usemtl Material.001
s off
f 3/1/1 2/2/1 18/3/1 19/4/1
f 18/3/1 2/2/1 8/5/1 17/6/1
f 17/6/1 8/5/1 9/7/1 16/8/1
f 16/8/1 9/7/1 10/9/1 15/10/1
f 15/10/1 10/9/1 1/11/1 11/12/1
f 4/13/1 13/14/1 11/12/1 1/11/1
f 19/4/1 20/15/1 7/16/1 3/1/1
f 20/15/1 21/17/1 6/18/1 7/16/1
f 14/19/1 12/20/1 5/21/1
f 14/19/1 5/21/1 6/18/1 21/17/1
